<?xml version="1.0" standalone="no"?>
<!-- Generator: Adobe Fireworks 10, Export SVG Extension by Aaron Beall (http://fireworks.abeall.com) . Version: 0.6.1  -->
<!DOCTYPE svg PUBLIC "-//W3C//DTD SVG 1.1//EN" "http://www.w3.org/Graphics/SVG/1.1/DTD/svg11.dtd">
<svg id="Untitled-Page%201" viewBox="0 0 50 50" style="background-color:transparent" version="1.1"
	xmlns="http://www.w3.org/2000/svg" xmlns:xlink="http://www.w3.org/1999/xlink" xml:space="preserve"
	x="0px" y="0px" width="50px" height="50px"
>
	<path d="M 45.6404 31.6577 L 40.7119 32.9659 L 37.3904 31.066 L 42.8379 29.6198 C 43.4139 29.4668 43.7557 28.8804 43.6014 28.3098 C 43.4471 27.7392 42.8548 27.4 42.2789 27.5532 L 34.7455 29.5531 L 31.8923 27.9212 C 31.7961 27.8662 31.6949 27.8275 31.592 27.8044 L 34.623 26.4828 C 35.0146 26.3119 35.2675 25.9282 35.2679 25.5044 C 35.2682 25.0806 35.0158 24.6964 34.6244 24.5251 L 31.586 23.1954 C 31.6909 23.1723 31.7944 23.1352 31.8923 23.079 L 34.7457 21.4469 L 42.2793 23.4465 C 42.3729 23.4714 42.4669 23.4833 42.5594 23.4833 C 43.0362 23.4832 43.4725 23.1681 43.6017 22.6901 C 43.756 22.1194 43.4143 21.5329 42.8382 21.38 L 37.3906 19.9339 L 40.712 18.0341 L 45.6406 19.3423 C 45.7341 19.3671 45.828 19.3791 45.9206 19.3791 C 46.3974 19.379 46.8337 19.0638 46.963 18.5859 C 47.1172 18.0152 46.7755 17.4286 46.1994 17.2758 L 43.357 16.5213 L 46.0843 14.9613 C 46.6008 14.6658 46.7777 14.0117 46.4795 13.5 C 46.1813 12.9884 45.521 12.8129 45.0045 13.1085 L 42.2771 14.6686 L 43.0386 11.8525 C 43.1929 11.2818 42.8512 10.6953 42.2751 10.5424 C 41.6991 10.3894 41.107 10.7281 40.9528 11.2988 L 39.6323 16.1814 L 36.3107 18.0814 L 37.7704 12.6845 C 37.9248 12.1139 37.5829 11.5273 37.007 11.3743 C 36.4308 11.2211 35.8388 11.56 35.6845 12.1307 L 33.6658 19.5943 L 30.8127 21.2263 C 30.7173 21.2809 30.6339 21.3476 30.5626 21.4234 L 30.9227 18.1633 C 30.9694 17.742 30.7604 17.3331 30.3899 17.1209 C 30.0195 16.9087 29.5575 16.9332 29.2122 17.1833 L 26.5306 19.1255 C 26.5626 19.0243 26.58 18.9167 26.58 18.8052 L 26.58 15.5411 L 32.0949 10.0772 C 32.5165 9.6594 32.5165 8.9821 32.0949 8.5643 C 31.6732 8.1466 30.9895 8.1466 30.5678 8.5643 L 26.5799 12.5151 L 26.5799 8.7156 L 30.1877 5.1411 C 30.6094 4.7233 30.6094 4.046 30.1877 3.6281 C 29.766 3.2105 29.0823 3.2105 28.6607 3.6281 L 26.5799 5.6897 L 26.5799 2.5697 C 26.5799 1.979 26.0965 1.5 25.5001 1.5 C 24.9037 1.5 24.4203 1.979 24.4203 2.5697 L 24.4203 5.6898 L 22.3395 3.6284 C 21.9179 3.2108 21.2342 3.2108 20.8124 3.6284 C 20.3908 4.0461 20.3908 4.7234 20.8124 5.1413 L 24.4203 8.7156 L 24.4203 12.5153 L 20.4324 8.5646 C 20.0108 8.147 19.3271 8.147 18.9054 8.5646 C 18.4838 8.9823 18.4838 9.6596 18.9054 10.0775 L 24.4203 15.541 L 24.4203 18.8051 C 24.4203 18.9129 24.4367 19.0168 24.4668 19.115 L 21.8001 17.1783 C 21.4552 16.9277 20.9932 16.9027 20.6226 17.1142 C 20.2519 17.3259 20.0423 17.7346 20.0883 18.156 L 20.4457 21.4316 C 20.3727 21.3523 20.2865 21.2825 20.1877 21.226 L 17.3344 19.5939 L 15.3157 12.1303 C 15.1614 11.5596 14.5694 11.2208 13.9932 11.3739 C 13.4173 11.5269 13.0755 12.1134 13.2297 12.684 L 14.6896 18.081 L 11.368 16.1811 L 10.0473 11.2984 C 9.893 10.7278 9.3008 10.389 8.7248 10.5421 C 8.1488 10.6951 7.807 11.2816 7.9613 11.8523 L 8.723 14.6682 L 5.9958 13.1082 C 5.4794 12.8129 4.819 12.988 4.5208 13.4997 C 4.2225 14.0114 4.3995 14.6655 4.916 14.961 L 7.6434 16.5211 L 4.8009 17.2757 C 4.225 17.4286 3.8831 18.0152 4.0375 18.5858 C 4.1667 19.0637 4.6029 19.379 5.0797 19.379 C 5.1722 19.379 5.2663 19.3671 5.36 19.3422 L 10.2883 18.034 L 13.6099 19.9338 L 8.1623 21.3801 C 7.5863 21.5331 7.2445 22.1196 7.3988 22.6902 C 7.528 23.1682 7.9643 23.4835 8.4411 23.4835 C 8.5335 23.4835 8.6277 23.4716 8.7213 23.4467 L 16.2547 21.4469 L 19.1078 23.0789 C 19.2026 23.1331 19.3025 23.1699 19.4038 23.1932 L 16.3779 24.5126 C 15.9864 24.6834 15.7334 25.0671 15.733 25.4909 C 15.7327 25.9148 15.9851 26.2989 16.3765 26.4701 L 19.4192 27.8018 C 19.3125 27.8248 19.2074 27.8639 19.1077 27.9208 L 16.2544 29.5529 L 8.7207 27.5532 C 8.1447 27.4001 7.5527 27.739 7.3983 28.3098 C 7.2439 28.8804 7.5858 29.4669 8.1618 29.6198 L 13.6094 31.0659 L 10.2879 32.9657 L 5.3595 31.6575 C 4.7832 31.5046 4.1913 31.8432 4.037 32.4139 C 3.8827 32.9846 4.2246 33.5712 4.8005 33.7241 L 7.6429 34.4785 L 4.9156 36.0385 C 4.3992 36.3341 4.2222 36.9882 4.5205 37.4998 C 4.7204 37.843 5.0833 38.0349 5.4565 38.0349 C 5.6396 38.0349 5.8253 37.9886 5.9954 37.8913 L 8.7229 36.3312 L 7.9612 39.1474 C 7.8068 39.7179 8.1487 40.3044 8.7248 40.4575 C 8.8183 40.4822 8.9124 40.4942 9.0049 40.4942 C 9.4816 40.4942 9.918 40.179 10.0472 39.701 L 11.3678 34.8185 L 14.6893 32.9184 L 13.2297 38.3154 C 13.0753 38.886 13.4172 39.4726 13.9932 39.6255 C 14.0868 39.6503 14.1809 39.6623 14.2734 39.6623 C 14.7501 39.6623 15.1865 39.3471 15.3157 38.869 L 17.3344 31.4055 L 20.1875 29.7735 C 20.2829 29.719 20.3663 29.6522 20.4377 29.5763 L 20.0781 32.8319 C 20.0315 33.2533 20.2405 33.6621 20.6109 33.8744 C 20.9813 34.0864 21.4431 34.0619 21.7886 33.8119 L 24.4716 31.8688 C 24.4385 31.9716 24.4202 32.081 24.4202 32.1947 L 24.4202 35.4588 L 18.9054 40.9227 C 18.4838 41.3404 18.4838 42.0178 18.9054 42.4356 C 19.1163 42.6444 19.3926 42.7489 19.6689 42.7489 C 19.9452 42.7489 20.2217 42.6444 20.4324 42.4356 L 24.4203 38.4849 L 24.4203 42.2847 L 20.8126 45.8591 C 20.391 46.2769 20.391 46.9541 20.8126 47.372 C 21.0235 47.5808 21.2998 47.6853 21.5761 47.6853 C 21.8524 47.6853 22.1288 47.5808 22.3396 47.372 L 24.4203 45.3103 L 24.4203 48.4303 C 24.4203 49.021 24.9037 49.5 25.5001 49.5 C 26.0965 49.5 26.5799 49.021 26.5799 48.4303 L 26.5799 45.3103 L 28.6607 47.3717 C 29.0823 47.7894 29.766 47.7894 30.1878 47.3717 C 30.6094 46.9539 30.6094 46.2766 30.1878 45.8588 L 26.5799 42.2845 L 26.5799 38.4847 L 30.5676 42.4356 C 30.9893 42.8531 31.673 42.8531 32.0948 42.4356 C 32.5165 42.0178 32.5165 41.3404 32.0948 40.9226 L 26.5799 35.459 L 26.5799 32.195 C 26.5799 32.0849 26.563 31.9786 26.5318 31.8788 L 29.2008 33.8171 C 29.39 33.9545 29.6144 34.0241 29.8394 34.0241 C 30.0248 34.0241 30.211 33.9769 30.3784 33.8811 C 30.7492 33.6694 30.9587 33.2609 30.9127 32.8395 L 30.5561 29.5702 C 30.6288 29.6487 30.7144 29.7179 30.8126 29.774 L 33.6659 31.4061 L 35.6848 38.8697 C 35.814 39.3477 36.2503 39.6628 36.7271 39.6628 C 36.8195 39.6627 36.9136 39.651 37.0072 39.626 C 37.5831 39.4731 37.925 38.8865 37.7708 38.3158 L 36.3109 32.9189 L 39.6325 34.819 L 40.9531 39.7014 C 41.0822 40.1795 41.5186 40.4947 41.9954 40.4947 C 42.0878 40.4946 42.1819 40.4828 42.2755 40.4579 C 42.8514 40.3048 43.1933 39.7184 43.0391 39.1478 L 42.2774 36.3318 L 45.0046 37.8918 C 45.1747 37.989 45.3603 38.0353 45.5436 38.0353 C 45.9167 38.0353 46.2797 37.8434 46.4796 37.5002 C 46.7778 36.9887 46.6009 36.3345 46.0844 36.0389 L 43.3569 34.4788 L 46.1994 33.7243 C 46.7754 33.5713 47.1172 32.9848 46.963 32.4142 C 46.8084 31.8434 46.2162 31.5045 45.6404 31.6577 ZM 28.8259 26.673 C 28.3952 26.8607 28.1368 27.3035 28.1873 27.767 L 28.5025 30.6574 L 26.1357 28.9386 C 25.9457 28.8006 25.7215 28.7316 25.4974 28.7316 C 25.2736 28.7316 25.0499 28.8003 24.8602 28.9377 L 22.4912 30.6534 L 22.8105 27.7635 C 22.8618 27.3 22.6039 26.857 22.1735 26.6686 L 19.4892 25.4938 L 22.1752 24.3227 C 22.6059 24.135 22.8643 23.6922 22.8137 23.2287 L 22.4986 20.3383 L 24.8653 22.0572 C 25.2448 22.3329 25.7609 22.3331 26.1408 22.0581 L 28.5097 20.3424 L 28.1905 23.2323 C 28.1392 23.6958 28.3971 24.1388 28.8275 24.3272 L 31.5119 25.5019 L 28.8259 26.673 Z" fill="#ffffff"/>
</svg>